<?xml version="1.0" encoding="utf-8"?>

<!DOCTYPE svg PUBLIC "-//W3C//DTD SVG 1.1//EN" "http://www.w3.org/Graphics/SVG/1.1/DTD/svg11.dtd">
<!-- Uploaded to: SVG Repo, www.svgrepo.com, Generator: SVG Repo Mixer Tools -->
<svg height="800px" width="800px" version="1.1" id="_x32_" xmlns="http://www.w3.org/2000/svg" xmlns:xlink="http://www.w3.org/1999/xlink" 
	 viewBox="0 0 512 512"  xml:space="preserve">
<style type="text/css">
	.st0{fill:#FFFFFF;}
</style>
<g>
	<path class="st0" d="M287.009,74.728c20.636,0,37.372-16.727,37.372-37.364C324.381,16.728,307.645,0,287.009,0
		c-20.63,0-37.358,16.728-37.358,37.364C249.651,58.001,266.379,74.728,287.009,74.728z"/>
	<polygon class="st0" points="372.2,419.995 282.45,419.995 282.45,354.646 192.735,354.646 192.735,289.282 102.992,289.282 
		102.992,223.918 26.558,223.918 26.558,250.559 76.357,250.559 76.357,315.923 166.101,315.923 166.101,381.287 255.816,381.287 
		255.816,446.636 345.566,446.636 345.566,512 460.238,512 460.238,485.366 372.2,485.359 	"/>
	<path class="st0" d="M477.984,181.242c-0.636-4.241-4.588-7.168-8.837-6.532l-17.931,2.696l-1.535-10.195
		c-0.636-4.148-4.494-6.988-8.635-6.374l-1.879,0.282c-0.26-1.734-0.86-3.447-1.85-5.022l-25.897-41.411
		c-2.796-4.465-7.052-7.818-12.052-9.487l-46.888-21.865c-16.792-7.826-36.418-6.59-52.105,3.28L228.3,132.007l-42.184-19.799
		c-6.553-3.67-14.82-1.496-18.714,4.921l-0.534,0.867c-1.922,3.187-2.515,6.994-1.619,10.6c0.889,3.606,3.194,6.706,6.388,8.614
		l50.276,30.001c6.251,3.735,13.874,4.408,20.687,1.835l29.777-16.041l14.119,56.953l-46.93-0.238
		c-7.905-0.022-15.412,3.483-20.456,9.574c-5.043,6.092-7.088,14.119-5.586,21.887l15.788,81.282
		c1.749,9.003,10.282,15.029,19.351,13.67l0.679-0.1c8.981-1.344,15.348-9.459,14.516-18.498l-5.347-58.239l70.819,1.647
		c10.166,0.232,19.893-4.155,26.446-11.936c6.554-7.775,9.22-18.108,7.262-28.094l-1.814-9.206l-14.567-82.199l37.538,5.542
		l27.458,31.844c-1.619,1.648-2.569,3.901-2.204,6.359l1.535,10.21l-17.93,2.695c-4.248,0.636-7.168,4.596-6.524,8.844l7.363,48.99
		c0.643,4.242,4.596,7.168,8.837,6.532l76.102-11.445c4.241-0.636,7.161-4.596,6.524-8.845L477.984,181.242z M416.747,172.644
		c4.328,4.206,10.979,5,16.156,1.72l0.304-0.196c2.186-1.38,3.8-3.316,4.826-5.484l4.104-0.622l0.318,0.231l1.536,10.204
		l-25.782,3.872L416.747,172.644z"/>
	<path class="st0" d="M393.667,384.835c6.286,6.568,16.67,6.966,23.441,0.889l0.484-0.426c6.749-6.055,7.486-16.381,1.677-23.354
		l-38.701-51.931l-10.824-55.002c-0.838,1.207-1.698,2.399-2.652,3.533c-9.205,10.933-22.696,17.204-36.996,17.204l-6.576-0.152
		l12.913,41.786c3.338,6.908,7.68,13.295,12.876,18.967L393.667,384.835z"/>
</g>
</svg>